<mxfile host="app.diagrams.net" agent="Mozilla/5.0 (X11; Linux x86_64) AppleWebKit/537.36 (KHTML, like Gecko) Chrome/135.0.0.0 Safari/537.36" version="26.2.13">
  <diagram name="Page-1" id="71p54Xlk6W4cgMh09R-Z">
    <mxGraphModel dx="1720" dy="979" grid="1" gridSize="10" guides="1" tooltips="1" connect="1" arrows="1" fold="1" page="1" pageScale="1" pageWidth="850" pageHeight="1100" math="1" shadow="0">
      <root>
        <mxCell id="0" />
        <mxCell id="naz40MDq0d2nhBIz074v-1" value="b)" parent="0" />
        <mxCell id="naz40MDq0d2nhBIz074v-2" value="" style="rounded=1;whiteSpace=wrap;html=1;strokeWidth=2;arcSize=0;strokeColor=#CCCCCC;dashed=1;dashPattern=12 12;" parent="naz40MDq0d2nhBIz074v-1" vertex="1">
          <mxGeometry x="1050" y="40" width="850" height="850" as="geometry" />
        </mxCell>
        <mxCell id="naz40MDq0d2nhBIz074v-3" value="" style="endArrow=none;html=1;rounded=0;entryX=0;entryY=0.5;entryDx=0;entryDy=0;strokeWidth=2;strokeColor=#CCCCCC;exitX=1;exitY=0.25;exitDx=0;exitDy=0;" parent="naz40MDq0d2nhBIz074v-1" source="naz40MDq0d2nhBIz074v-13" target="naz40MDq0d2nhBIz074v-34" edge="1">
          <mxGeometry width="50" height="50" relative="1" as="geometry">
            <mxPoint x="1680" y="320" as="sourcePoint" />
            <mxPoint x="1730" y="270" as="targetPoint" />
          </mxGeometry>
        </mxCell>
        <mxCell id="naz40MDq0d2nhBIz074v-5" value="$$\mathbf{m}_{i,1}$$" style="whiteSpace=wrap;html=1;aspect=fixed;fontSize=20;fillColor=#eeeeee;strokeColor=#36393d;" parent="naz40MDq0d2nhBIz074v-1" vertex="1">
          <mxGeometry x="1360" y="50" width="80" height="80" as="geometry" />
        </mxCell>
        <mxCell id="naz40MDq0d2nhBIz074v-6" value="$$\mathbf{m}_{i,2}$$" style="whiteSpace=wrap;html=1;aspect=fixed;fontSize=20;fillColor=#eeeeee;strokeColor=#36393d;" parent="naz40MDq0d2nhBIz074v-1" vertex="1">
          <mxGeometry x="1480" y="50" width="80" height="80" as="geometry" />
        </mxCell>
        <mxCell id="naz40MDq0d2nhBIz074v-7" value="$$\mathbf{m}_{i,3}$$" style="whiteSpace=wrap;html=1;aspect=fixed;fontSize=20;fillColor=#eeeeee;strokeColor=#36393d;" parent="naz40MDq0d2nhBIz074v-1" vertex="1">
          <mxGeometry x="1600" y="50" width="80" height="80" as="geometry" />
        </mxCell>
        <mxCell id="naz40MDq0d2nhBIz074v-8" value="" style="endArrow=classic;html=1;rounded=0;entryX=0.5;entryY=0;entryDx=0;entryDy=0;exitX=0.5;exitY=1;exitDx=0;exitDy=0;fontSize=20;strokeWidth=2;" parent="naz40MDq0d2nhBIz074v-1" source="naz40MDq0d2nhBIz074v-7" edge="1">
          <mxGeometry width="50" height="50" relative="1" as="geometry">
            <mxPoint x="1560" y="250" as="sourcePoint" />
            <mxPoint x="1640" y="170" as="targetPoint" />
          </mxGeometry>
        </mxCell>
        <mxCell id="naz40MDq0d2nhBIz074v-9" value="" style="endArrow=classic;html=1;rounded=0;exitX=0.5;exitY=1;exitDx=0;exitDy=0;fontSize=20;strokeWidth=2;" parent="naz40MDq0d2nhBIz074v-1" source="naz40MDq0d2nhBIz074v-6" edge="1">
          <mxGeometry width="50" height="50" relative="1" as="geometry">
            <mxPoint x="1560" y="250" as="sourcePoint" />
            <mxPoint x="1520" y="170" as="targetPoint" />
          </mxGeometry>
        </mxCell>
        <mxCell id="naz40MDq0d2nhBIz074v-10" value="" style="endArrow=classic;html=1;rounded=0;entryX=0.5;entryY=0;entryDx=0;entryDy=0;exitX=0.5;exitY=1;exitDx=0;exitDy=0;fontSize=20;strokeWidth=2;" parent="naz40MDq0d2nhBIz074v-1" source="naz40MDq0d2nhBIz074v-5" edge="1">
          <mxGeometry width="50" height="50" relative="1" as="geometry">
            <mxPoint x="1560" y="250" as="sourcePoint" />
            <mxPoint x="1400" y="170" as="targetPoint" />
          </mxGeometry>
        </mxCell>
        <mxCell id="naz40MDq0d2nhBIz074v-11" value="$$\mathbf{r}_{i,1}$$" style="whiteSpace=wrap;html=1;aspect=fixed;fontSize=20;fillColor=#eeeeee;strokeColor=#36393d;" parent="naz40MDq0d2nhBIz074v-1" vertex="1">
          <mxGeometry x="1360" y="290" width="80" height="80" as="geometry" />
        </mxCell>
        <mxCell id="naz40MDq0d2nhBIz074v-12" value="$$\mathbf{r}_{i,2}$$" style="whiteSpace=wrap;html=1;aspect=fixed;fontSize=20;fillColor=#eeeeee;strokeColor=#36393d;" parent="naz40MDq0d2nhBIz074v-1" vertex="1">
          <mxGeometry x="1480" y="290" width="80" height="80" as="geometry" />
        </mxCell>
        <mxCell id="naz40MDq0d2nhBIz074v-13" value="$$\mathbf{r}_{i,3}$$" style="whiteSpace=wrap;html=1;aspect=fixed;fontSize=20;fillColor=#eeeeee;strokeColor=#36393d;" parent="naz40MDq0d2nhBIz074v-1" vertex="1">
          <mxGeometry x="1600" y="290" width="80" height="80" as="geometry" />
        </mxCell>
        <mxCell id="naz40MDq0d2nhBIz074v-14" value="" style="endArrow=classic;html=1;rounded=0;entryX=0.5;entryY=0;entryDx=0;entryDy=0;exitX=0.5;exitY=1;exitDx=0;exitDy=0;fontSize=20;strokeWidth=2;" parent="naz40MDq0d2nhBIz074v-1" target="naz40MDq0d2nhBIz074v-11" edge="1">
          <mxGeometry width="50" height="50" relative="1" as="geometry">
            <mxPoint x="1400" y="250" as="sourcePoint" />
            <mxPoint x="1630" y="190" as="targetPoint" />
          </mxGeometry>
        </mxCell>
        <mxCell id="naz40MDq0d2nhBIz074v-15" value="" style="endArrow=classic;html=1;rounded=0;entryX=0.5;entryY=0;entryDx=0;entryDy=0;exitX=0.5;exitY=1;exitDx=0;exitDy=0;fontSize=20;strokeWidth=2;" parent="naz40MDq0d2nhBIz074v-1" target="naz40MDq0d2nhBIz074v-12" edge="1">
          <mxGeometry width="50" height="50" relative="1" as="geometry">
            <mxPoint x="1520" y="250" as="sourcePoint" />
            <mxPoint x="1410" y="300" as="targetPoint" />
          </mxGeometry>
        </mxCell>
        <mxCell id="naz40MDq0d2nhBIz074v-16" value="" style="endArrow=classic;html=1;rounded=0;entryX=0.5;entryY=0;entryDx=0;entryDy=0;exitX=0.5;exitY=1;exitDx=0;exitDy=0;fontSize=20;strokeWidth=2;" parent="naz40MDq0d2nhBIz074v-1" target="naz40MDq0d2nhBIz074v-13" edge="1">
          <mxGeometry width="50" height="50" relative="1" as="geometry">
            <mxPoint x="1640" y="250" as="sourcePoint" />
            <mxPoint x="1530" y="300" as="targetPoint" />
          </mxGeometry>
        </mxCell>
        <mxCell id="naz40MDq0d2nhBIz074v-17" value="$$\psi_1$$" style="rounded=1;whiteSpace=wrap;html=1;fontSize=20;fillColor=#d0cee2;strokeColor=#000000;" parent="naz40MDq0d2nhBIz074v-1" vertex="1">
          <mxGeometry x="1360" y="170" width="80" height="80" as="geometry" />
        </mxCell>
        <mxCell id="naz40MDq0d2nhBIz074v-18" value="$$\psi_2$$" style="rounded=1;whiteSpace=wrap;html=1;fontSize=20;fillColor=#d0cee2;strokeColor=#000000;" parent="naz40MDq0d2nhBIz074v-1" vertex="1">
          <mxGeometry x="1480" y="170" width="80" height="80" as="geometry" />
        </mxCell>
        <mxCell id="naz40MDq0d2nhBIz074v-19" value="$$\psi_3$$" style="rounded=1;whiteSpace=wrap;html=1;fontSize=20;fillColor=#d0cee2;strokeColor=#000000;" parent="naz40MDq0d2nhBIz074v-1" vertex="1">
          <mxGeometry x="1600" y="170" width="80" height="80" as="geometry" />
        </mxCell>
        <mxCell id="naz40MDq0d2nhBIz074v-20" value="Input metadata variables" style="text;html=1;align=center;verticalAlign=middle;whiteSpace=wrap;rounded=0;fontSize=20;" parent="naz40MDq0d2nhBIz074v-1" vertex="1">
          <mxGeometry x="1181" y="69" width="165" height="30" as="geometry" />
        </mxCell>
        <mxCell id="naz40MDq0d2nhBIz074v-21" value="Transformations" style="text;html=1;align=center;verticalAlign=middle;whiteSpace=wrap;rounded=0;fontSize=20;" parent="naz40MDq0d2nhBIz074v-1" vertex="1">
          <mxGeometry x="1181" y="189" width="165" height="30" as="geometry" />
        </mxCell>
        <mxCell id="naz40MDq0d2nhBIz074v-22" value="Intermediate representations" style="text;html=1;align=center;verticalAlign=middle;whiteSpace=wrap;rounded=0;fontSize=20;" parent="naz40MDq0d2nhBIz074v-1" vertex="1">
          <mxGeometry x="1181" y="306" width="165" height="30" as="geometry" />
        </mxCell>
        <mxCell id="naz40MDq0d2nhBIz074v-23" value="&lt;font style=&quot;font-size: 20px;&quot;&gt;Concatenate&lt;/font&gt;" style="rounded=1;whiteSpace=wrap;html=1;fillColor=#d0cee2;strokeColor=#000000;" parent="naz40MDq0d2nhBIz074v-1" vertex="1">
          <mxGeometry x="1360" y="442" width="320" height="60" as="geometry" />
        </mxCell>
        <mxCell id="naz40MDq0d2nhBIz074v-24" value="&lt;font style=&quot;font-size: 20px;&quot;&gt;Multilayer perceptron&lt;/font&gt;" style="rounded=1;whiteSpace=wrap;html=1;fillColor=#d0cee2;strokeColor=#000000;" parent="naz40MDq0d2nhBIz074v-1" vertex="1">
          <mxGeometry x="1360" y="532" width="320" height="60" as="geometry" />
        </mxCell>
        <mxCell id="naz40MDq0d2nhBIz074v-25" value="" style="endArrow=classic;html=1;rounded=0;entryX=0.5;entryY=0;entryDx=0;entryDy=0;strokeWidth=2;" parent="naz40MDq0d2nhBIz074v-1" target="naz40MDq0d2nhBIz074v-23" edge="1">
          <mxGeometry width="50" height="50" relative="1" as="geometry">
            <mxPoint x="1520" y="410" as="sourcePoint" />
            <mxPoint x="1530" y="370" as="targetPoint" />
          </mxGeometry>
        </mxCell>
        <mxCell id="naz40MDq0d2nhBIz074v-26" value="" style="endArrow=none;html=1;rounded=0;entryX=0.5;entryY=1;entryDx=0;entryDy=0;strokeWidth=2;" parent="naz40MDq0d2nhBIz074v-1" target="naz40MDq0d2nhBIz074v-13" edge="1">
          <mxGeometry width="50" height="50" relative="1" as="geometry">
            <mxPoint x="1520" y="410" as="sourcePoint" />
            <mxPoint x="1630" y="340" as="targetPoint" />
          </mxGeometry>
        </mxCell>
        <mxCell id="naz40MDq0d2nhBIz074v-27" value="" style="endArrow=none;html=1;rounded=0;entryX=0.5;entryY=1;entryDx=0;entryDy=0;strokeWidth=2;" parent="naz40MDq0d2nhBIz074v-1" target="naz40MDq0d2nhBIz074v-11" edge="1">
          <mxGeometry width="50" height="50" relative="1" as="geometry">
            <mxPoint x="1520" y="410" as="sourcePoint" />
            <mxPoint x="1650" y="380" as="targetPoint" />
          </mxGeometry>
        </mxCell>
        <mxCell id="naz40MDq0d2nhBIz074v-28" value="" style="endArrow=none;html=1;rounded=0;exitX=0.5;exitY=1;exitDx=0;exitDy=0;strokeWidth=2;" parent="naz40MDq0d2nhBIz074v-1" source="naz40MDq0d2nhBIz074v-12" edge="1">
          <mxGeometry width="50" height="50" relative="1" as="geometry">
            <mxPoint x="1530" y="420" as="sourcePoint" />
            <mxPoint x="1520" y="410" as="targetPoint" />
          </mxGeometry>
        </mxCell>
        <mxCell id="naz40MDq0d2nhBIz074v-29" value="" style="endArrow=classic;html=1;rounded=0;exitX=1;exitY=0.5;exitDx=0;exitDy=0;entryX=1;entryY=0.5;entryDx=0;entryDy=0;strokeWidth=2;" parent="naz40MDq0d2nhBIz074v-1" source="naz40MDq0d2nhBIz074v-13" target="naz40MDq0d2nhBIz074v-30" edge="1">
          <mxGeometry width="50" height="50" relative="1" as="geometry">
            <mxPoint x="1680" y="350" as="sourcePoint" />
            <mxPoint x="1760" y="720" as="targetPoint" />
            <Array as="points">
              <mxPoint x="1860" y="330" />
              <mxPoint x="1860" y="749" />
            </Array>
          </mxGeometry>
        </mxCell>
        <mxCell id="naz40MDq0d2nhBIz074v-30" value="&lt;font style=&quot;font-size: 20px;&quot;&gt;Concatenate&lt;/font&gt;" style="rounded=1;whiteSpace=wrap;html=1;fillColor=#d0cee2;strokeColor=#000000;" parent="naz40MDq0d2nhBIz074v-1" vertex="1">
          <mxGeometry x="1360" y="719" width="320" height="60" as="geometry" />
        </mxCell>
        <mxCell id="naz40MDq0d2nhBIz074v-32" value="" style="endArrow=classic;html=1;rounded=0;entryX=0.5;entryY=0;entryDx=0;entryDy=0;exitX=0.5;exitY=1;exitDx=0;exitDy=0;strokeWidth=2;" parent="naz40MDq0d2nhBIz074v-1" source="naz40MDq0d2nhBIz074v-23" target="naz40MDq0d2nhBIz074v-24" edge="1">
          <mxGeometry width="50" height="50" relative="1" as="geometry">
            <mxPoint x="1520" y="500" as="sourcePoint" />
            <mxPoint x="1550" y="330" as="targetPoint" />
          </mxGeometry>
        </mxCell>
        <mxCell id="naz40MDq0d2nhBIz074v-34" value="Directly forwarded variable" style="text;html=1;align=center;verticalAlign=middle;whiteSpace=wrap;rounded=0;fontSize=20;" parent="naz40MDq0d2nhBIz074v-1" vertex="1">
          <mxGeometry x="1720" y="260" width="165" height="30" as="geometry" />
        </mxCell>
        <mxCell id="naz40MDq0d2nhBIz074v-35" value="&lt;font style=&quot;font-size: 20px;&quot;&gt;$$ \mathbf{w}_{i, 1:3}$$&lt;/font&gt;" style="rounded=0;whiteSpace=wrap;html=1;fillColor=#eeeeee;strokeColor=#36393d;" parent="naz40MDq0d2nhBIz074v-1" vertex="1">
          <mxGeometry x="1360" y="810" width="320" height="60" as="geometry" />
        </mxCell>
        <mxCell id="naz40MDq0d2nhBIz074v-36" value="" style="endArrow=classic;html=1;rounded=0;entryX=0.5;entryY=0;entryDx=0;entryDy=0;exitX=0.5;exitY=1;exitDx=0;exitDy=0;strokeWidth=2;" parent="naz40MDq0d2nhBIz074v-1" source="naz40MDq0d2nhBIz074v-30" edge="1">
          <mxGeometry width="50" height="50" relative="1" as="geometry">
            <mxPoint x="1600" y="830" as="sourcePoint" />
            <mxPoint x="1520" y="810.0000000000002" as="targetPoint" />
          </mxGeometry>
        </mxCell>
        <mxCell id="naz40MDq0d2nhBIz074v-37" value="Final feature weights for the \(i\)-th&amp;nbsp;experiment" style="text;html=1;align=center;verticalAlign=middle;whiteSpace=wrap;rounded=0;fontSize=20;" parent="naz40MDq0d2nhBIz074v-1" vertex="1">
          <mxGeometry x="1130" y="823" width="220" height="30" as="geometry" />
        </mxCell>
        <mxCell id="naz40MDq0d2nhBIz074v-74" value="$$\frac{d_z}{2} \times 1 $$" style="text;html=1;align=center;verticalAlign=middle;whiteSpace=wrap;rounded=0;fontSize=18;" parent="naz40MDq0d2nhBIz074v-1" vertex="1">
          <mxGeometry x="1717" y="821" width="50" height="30" as="geometry" />
        </mxCell>
        <mxCell id="naz40MDq0d2nhBIz074v-76" value="&lt;b&gt;&lt;font style=&quot;font-size: 40px;&quot;&gt;b)&lt;/font&gt;&lt;/b&gt;" style="text;html=1;align=center;verticalAlign=middle;whiteSpace=wrap;rounded=0;" parent="naz40MDq0d2nhBIz074v-1" vertex="1">
          <mxGeometry x="1060" y="800" width="60" height="30" as="geometry" />
        </mxCell>
        <mxCell id="Tqr53HxaO8q2NF43xJjd-3" value="&lt;font style=&quot;font-size: 20px;&quot;&gt;$$ \mathbf{w}_{i, 1:2}$$&lt;/font&gt;" style="rounded=0;whiteSpace=wrap;html=1;fillColor=#eeeeee;strokeColor=#36393d;" vertex="1" parent="naz40MDq0d2nhBIz074v-1">
          <mxGeometry x="1360" y="629" width="320" height="60" as="geometry" />
        </mxCell>
        <mxCell id="Tqr53HxaO8q2NF43xJjd-5" value="" style="endArrow=classic;html=1;rounded=0;entryX=0.5;entryY=0;entryDx=0;entryDy=0;exitX=0.5;exitY=1;exitDx=0;exitDy=0;strokeWidth=2;" edge="1" parent="naz40MDq0d2nhBIz074v-1">
          <mxGeometry width="50" height="50" relative="1" as="geometry">
            <mxPoint x="1520" y="592" as="sourcePoint" />
            <mxPoint x="1520" y="630.0000000000002" as="targetPoint" />
          </mxGeometry>
        </mxCell>
        <mxCell id="Tqr53HxaO8q2NF43xJjd-6" value="" style="endArrow=classic;html=1;rounded=0;entryX=0.5;entryY=0;entryDx=0;entryDy=0;exitX=0.5;exitY=1;exitDx=0;exitDy=0;strokeWidth=2;" edge="1" parent="naz40MDq0d2nhBIz074v-1" source="Tqr53HxaO8q2NF43xJjd-3" target="naz40MDq0d2nhBIz074v-30">
          <mxGeometry width="50" height="50" relative="1" as="geometry">
            <mxPoint x="1340" y="550" as="sourcePoint" />
            <mxPoint x="1390" y="500" as="targetPoint" />
          </mxGeometry>
        </mxCell>
        <mxCell id="Tqr53HxaO8q2NF43xJjd-7" value="$$\left(\frac{d_z}{2} - 1\right) \times 1 $$" style="text;html=1;align=center;verticalAlign=middle;whiteSpace=wrap;rounded=0;fontSize=18;" vertex="1" parent="naz40MDq0d2nhBIz074v-1">
          <mxGeometry x="1736" y="641" width="50" height="30" as="geometry" />
        </mxCell>
        <mxCell id="Tqr53HxaO8q2NF43xJjd-8" value="Embedding of the interacting features" style="text;html=1;align=center;verticalAlign=middle;whiteSpace=wrap;rounded=0;fontSize=20;" vertex="1" parent="naz40MDq0d2nhBIz074v-1">
          <mxGeometry x="1130" y="643" width="220" height="30" as="geometry" />
        </mxCell>
        <mxCell id="naz40MDq0d2nhBIz074v-38" value="a)" parent="0" />
        <mxCell id="naz40MDq0d2nhBIz074v-39" value="" style="rounded=1;whiteSpace=wrap;html=1;arcSize=0;fontSize=14;strokeWidth=2;strokeColor=none;" parent="naz40MDq0d2nhBIz074v-38" vertex="1">
          <mxGeometry x="45" y="40" width="1010" height="850" as="geometry" />
        </mxCell>
        <mxCell id="naz40MDq0d2nhBIz074v-86" value="" style="endArrow=none;html=1;rounded=0;exitX=1;exitY=0;exitDx=0;exitDy=0;entryX=0;entryY=0;entryDx=0;entryDy=0;dashed=1;dashPattern=12 12;strokeWidth=2;strokeColor=#CCCCCC;" parent="naz40MDq0d2nhBIz074v-38" source="naz40MDq0d2nhBIz074v-45" target="naz40MDq0d2nhBIz074v-2" edge="1">
          <mxGeometry width="50" height="50" relative="1" as="geometry">
            <mxPoint x="880" y="720" as="sourcePoint" />
            <mxPoint x="930" y="670" as="targetPoint" />
          </mxGeometry>
        </mxCell>
        <mxCell id="naz40MDq0d2nhBIz074v-41" value="" style="rounded=1;whiteSpace=wrap;html=1;fillColor=#DDF2FC;strokeColor=none;fontSize=20;" parent="naz40MDq0d2nhBIz074v-38" vertex="1">
          <mxGeometry x="220" y="280" width="610" height="350" as="geometry" />
        </mxCell>
        <mxCell id="naz40MDq0d2nhBIz074v-42" value="Sequence CNN" style="rounded=1;whiteSpace=wrap;html=1;fillColor=#d0cee2;strokeColor=#000000;fontSize=20;" parent="naz40MDq0d2nhBIz074v-38" vertex="1">
          <mxGeometry x="340" y="172" width="420" height="68" as="geometry" />
        </mxCell>
        <mxCell id="naz40MDq0d2nhBIz074v-43" value="Input DNA" style="rounded=0;whiteSpace=wrap;html=1;fillColor=#eeeeee;strokeColor=#36393d;fontSize=20;" parent="naz40MDq0d2nhBIz074v-38" vertex="1">
          <mxGeometry x="340" y="80" width="420" height="50" as="geometry" />
        </mxCell>
        <mxCell id="naz40MDq0d2nhBIz074v-44" value="Metadata Embedding &lt;br&gt;Bio" style="rounded=1;whiteSpace=wrap;html=1;fillColor=#D5E8D4;fontSize=20;" parent="naz40MDq0d2nhBIz074v-38" vertex="1">
          <mxGeometry x="340" y="650" width="210" height="61" as="geometry" />
        </mxCell>
        <mxCell id="naz40MDq0d2nhBIz074v-45" value="Metadata Embedding Tech" style="rounded=1;whiteSpace=wrap;html=1;fillColor=#FFE6CC;strokeColor=#36393d;fontSize=20;strokeWidth=1;" parent="naz40MDq0d2nhBIz074v-38" vertex="1">
          <mxGeometry x="550" y="650" width="230" height="61" as="geometry" />
        </mxCell>
        <mxCell id="naz40MDq0d2nhBIz074v-46" value="Input metadata Bio" style="rounded=0;whiteSpace=wrap;html=1;fillColor=#D5E8D4;fontSize=20;" parent="naz40MDq0d2nhBIz074v-38" vertex="1">
          <mxGeometry x="340" y="791" width="210" height="49" as="geometry" />
        </mxCell>
        <mxCell id="naz40MDq0d2nhBIz074v-47" value="Input metadata Tech" style="rounded=0;whiteSpace=wrap;html=1;fillColor=#FFE6CC;strokeColor=#36393d;fontSize=20;" parent="naz40MDq0d2nhBIz074v-38" vertex="1">
          <mxGeometry x="550" y="791" width="230" height="49" as="geometry" />
        </mxCell>
        <mxCell id="naz40MDq0d2nhBIz074v-48" value="$$ \mathbf{z}_{bio} $$" style="rounded=0;whiteSpace=wrap;html=1;fillColor=#d5e8d4;strokeColor=#000000;fontSize=20;" parent="naz40MDq0d2nhBIz074v-38" vertex="1">
          <mxGeometry x="340" y="370" width="210" height="56" as="geometry" />
        </mxCell>
        <mxCell id="naz40MDq0d2nhBIz074v-49" value="$$ \mathbf{z}_{tech} $$" style="rounded=0;whiteSpace=wrap;html=1;fillColor=#FFE6CC;strokeColor=#000000;fontSize=20;" parent="naz40MDq0d2nhBIz074v-38" vertex="1">
          <mxGeometry x="550" y="370" width="230" height="56" as="geometry" />
        </mxCell>
        <mxCell id="naz40MDq0d2nhBIz074v-50" value="$$ \mathbf{w}_{bio} $$" style="rounded=0;whiteSpace=wrap;html=1;fillColor=#d5e8d4;strokeColor=#000000;fontSize=20;" parent="naz40MDq0d2nhBIz074v-38" vertex="1">
          <mxGeometry x="340" y="520" width="210" height="60" as="geometry" />
        </mxCell>
        <mxCell id="naz40MDq0d2nhBIz074v-51" value="$$ \mathbf{w}_{tech} $$" style="rounded=0;whiteSpace=wrap;html=1;fillColor=#FFE6CC;strokeColor=#36393d;fontSize=20;" parent="naz40MDq0d2nhBIz074v-38" vertex="1">
          <mxGeometry x="550" y="520" width="230" height="60" as="geometry" />
        </mxCell>
        <mxCell id="naz40MDq0d2nhBIz074v-52" value="Latent features" style="text;html=1;align=center;verticalAlign=middle;whiteSpace=wrap;rounded=0;fontSize=20;" parent="naz40MDq0d2nhBIz074v-38" vertex="1">
          <mxGeometry x="218" y="377" width="112" height="30" as="geometry" />
        </mxCell>
        <mxCell id="naz40MDq0d2nhBIz074v-53" value="&amp;nbsp;\( B \times \frac{d_z}{2} \)" style="text;html=1;align=center;verticalAlign=middle;whiteSpace=wrap;rounded=0;fontSize=20;" parent="naz40MDq0d2nhBIz074v-38" vertex="1">
          <mxGeometry x="395" y="320" width="80" height="30" as="geometry" />
        </mxCell>
        <mxCell id="naz40MDq0d2nhBIz074v-54" value="&amp;nbsp;\( B \times \frac{d_z}{2} \)" style="text;html=1;align=center;verticalAlign=middle;whiteSpace=wrap;rounded=0;fontSize=20;" parent="naz40MDq0d2nhBIz074v-38" vertex="1">
          <mxGeometry x="635" y="320" width="80" height="30" as="geometry" />
        </mxCell>
        <mxCell id="naz40MDq0d2nhBIz074v-55" value="&amp;nbsp;\( \frac{d_z}{2} \times d_y \)" style="text;html=1;align=center;verticalAlign=middle;whiteSpace=wrap;rounded=0;fontSize=20;" parent="naz40MDq0d2nhBIz074v-38" vertex="1">
          <mxGeometry x="585" y="590" width="50" height="30" as="geometry" />
        </mxCell>
        <mxCell id="naz40MDq0d2nhBIz074v-56" value="&amp;nbsp;\( \frac{d_z}{2} \times d_y \)" style="text;html=1;align=center;verticalAlign=middle;whiteSpace=wrap;rounded=0;fontSize=20;" parent="naz40MDq0d2nhBIz074v-38" vertex="1">
          <mxGeometry x="363.13" y="590" width="50" height="30" as="geometry" />
        </mxCell>
        <mxCell id="naz40MDq0d2nhBIz074v-57" value="Feature weights" style="text;html=1;align=center;verticalAlign=middle;whiteSpace=wrap;rounded=0;fontSize=20;" parent="naz40MDq0d2nhBIz074v-38" vertex="1">
          <mxGeometry x="212" y="535" width="120" height="30" as="geometry" />
        </mxCell>
        <mxCell id="naz40MDq0d2nhBIz074v-58" value="$$\times$$" style="text;html=1;align=center;verticalAlign=middle;whiteSpace=wrap;rounded=0;fontSize=36;" parent="naz40MDq0d2nhBIz074v-38" vertex="1">
          <mxGeometry x="415" y="455" width="60" height="30" as="geometry" />
        </mxCell>
        <mxCell id="naz40MDq0d2nhBIz074v-59" value="$$\times$$" style="text;html=1;align=center;verticalAlign=middle;whiteSpace=wrap;rounded=0;fontSize=36;" parent="naz40MDq0d2nhBIz074v-38" vertex="1">
          <mxGeometry x="635" y="455" width="60" height="30" as="geometry" />
        </mxCell>
        <mxCell id="naz40MDq0d2nhBIz074v-60" value="" style="endArrow=classic;html=1;rounded=0;entryX=0.6;entryY=1.027;entryDx=0;entryDy=0;entryPerimeter=0;fontSize=20;strokeWidth=2;exitX=0.5;exitY=0;exitDx=0;exitDy=0;" parent="naz40MDq0d2nhBIz074v-38" source="naz40MDq0d2nhBIz074v-44" edge="1">
          <mxGeometry width="50" height="50" relative="1" as="geometry">
            <mxPoint x="446" y="630" as="sourcePoint" />
            <mxPoint x="446" y="580.81" as="targetPoint" />
          </mxGeometry>
        </mxCell>
        <mxCell id="naz40MDq0d2nhBIz074v-61" value="" style="endArrow=classic;html=1;rounded=0;entryX=0.5;entryY=1;entryDx=0;entryDy=0;exitX=0.5;exitY=0;exitDx=0;exitDy=0;fontSize=20;strokeWidth=2;" parent="naz40MDq0d2nhBIz074v-38" source="naz40MDq0d2nhBIz074v-45" target="naz40MDq0d2nhBIz074v-51" edge="1">
          <mxGeometry width="50" height="50" relative="1" as="geometry">
            <mxPoint x="665" y="630" as="sourcePoint" />
            <mxPoint x="660.3" y="579.67" as="targetPoint" />
          </mxGeometry>
        </mxCell>
        <mxCell id="naz40MDq0d2nhBIz074v-62" value="&amp;nbsp;\( B \times L \times 16 \)" style="text;html=1;align=center;verticalAlign=middle;whiteSpace=wrap;rounded=0;fontSize=20;" parent="naz40MDq0d2nhBIz074v-38" vertex="1">
          <mxGeometry x="228" y="90" width="80" height="30" as="geometry" />
        </mxCell>
        <mxCell id="naz40MDq0d2nhBIz074v-63" value="&amp;nbsp;\( d_{bio} \times d_y \)" style="text;html=1;align=center;verticalAlign=middle;whiteSpace=wrap;rounded=0;fontSize=18;" parent="naz40MDq0d2nhBIz074v-38" vertex="1">
          <mxGeometry x="363.13" y="745" width="50" height="30" as="geometry" />
        </mxCell>
        <mxCell id="naz40MDq0d2nhBIz074v-64" value="&amp;nbsp;\( d_{tech} \times d_y \)" style="text;html=1;align=center;verticalAlign=middle;whiteSpace=wrap;rounded=0;fontSize=18;" parent="naz40MDq0d2nhBIz074v-38" vertex="1">
          <mxGeometry x="580" y="745" width="50" height="30" as="geometry" />
        </mxCell>
        <mxCell id="naz40MDq0d2nhBIz074v-65" value="" style="endArrow=classic;html=1;rounded=0;entryX=1;entryY=0;entryDx=0;entryDy=0;exitX=0.5;exitY=1;exitDx=0;exitDy=0;fontSize=20;strokeWidth=2;" parent="naz40MDq0d2nhBIz074v-38" target="naz40MDq0d2nhBIz074v-48" edge="1">
          <mxGeometry width="50" height="50" relative="1" as="geometry">
            <mxPoint x="550" y="220" as="sourcePoint" />
            <mxPoint x="660" y="180" as="targetPoint" />
          </mxGeometry>
        </mxCell>
        <mxCell id="naz40MDq0d2nhBIz074v-66" value="$$\hat{\mathbf{y}} $$" style="rounded=0;whiteSpace=wrap;html=1;fillColor=#eeeeee;strokeColor=#36393d;fontSize=20;" parent="naz40MDq0d2nhBIz074v-38" vertex="1">
          <mxGeometry x="80" y="446" width="70" height="50" as="geometry" />
        </mxCell>
        <mxCell id="naz40MDq0d2nhBIz074v-67" value="+" style="text;html=1;align=center;verticalAlign=middle;whiteSpace=wrap;rounded=0;fontSize=36;" parent="naz40MDq0d2nhBIz074v-38" vertex="1">
          <mxGeometry x="520" y="455" width="60" height="30" as="geometry" />
        </mxCell>
        <mxCell id="naz40MDq0d2nhBIz074v-68" value="&amp;nbsp;\( B \times d_y \)" style="text;html=1;align=center;verticalAlign=middle;whiteSpace=wrap;rounded=0;fontSize=20;" parent="naz40MDq0d2nhBIz074v-38" vertex="1">
          <mxGeometry x="75" y="516" width="80" height="30" as="geometry" />
        </mxCell>
        <mxCell id="naz40MDq0d2nhBIz074v-69" value="Model predictions" style="text;html=1;align=center;verticalAlign=middle;whiteSpace=wrap;rounded=0;fontSize=20;" parent="naz40MDq0d2nhBIz074v-38" vertex="1">
          <mxGeometry x="40" y="389" width="150" height="30" as="geometry" />
        </mxCell>
        <mxCell id="naz40MDq0d2nhBIz074v-70" value="" style="endArrow=classic;html=1;rounded=0;entryX=0.5;entryY=1;entryDx=0;entryDy=0;exitX=0.5;exitY=0;exitDx=0;exitDy=0;fontSize=14;strokeWidth=2;" parent="naz40MDq0d2nhBIz074v-38" source="naz40MDq0d2nhBIz074v-46" target="naz40MDq0d2nhBIz074v-44" edge="1">
          <mxGeometry width="50" height="50" relative="1" as="geometry">
            <mxPoint x="527" y="668" as="sourcePoint" />
            <mxPoint x="445" y="731" as="targetPoint" />
          </mxGeometry>
        </mxCell>
        <mxCell id="naz40MDq0d2nhBIz074v-71" value="" style="endArrow=classic;html=1;rounded=0;entryX=0.5;entryY=1;entryDx=0;entryDy=0;exitX=0.5;exitY=0;exitDx=0;exitDy=0;fontSize=14;strokeWidth=2;" parent="naz40MDq0d2nhBIz074v-38" source="naz40MDq0d2nhBIz074v-47" target="naz40MDq0d2nhBIz074v-45" edge="1">
          <mxGeometry width="50" height="50" relative="1" as="geometry">
            <mxPoint x="527" y="668" as="sourcePoint" />
            <mxPoint x="665" y="731" as="targetPoint" />
          </mxGeometry>
        </mxCell>
        <mxCell id="naz40MDq0d2nhBIz074v-72" value="" style="endArrow=classic;html=1;rounded=0;entryX=0.5;entryY=0;entryDx=0;entryDy=0;exitX=0.5;exitY=1;exitDx=0;exitDy=0;fontSize=20;strokeWidth=2;" parent="naz40MDq0d2nhBIz074v-38" source="naz40MDq0d2nhBIz074v-43" target="naz40MDq0d2nhBIz074v-42" edge="1">
          <mxGeometry width="50" height="50" relative="1" as="geometry">
            <mxPoint x="398" y="284" as="sourcePoint" />
            <mxPoint x="540" y="125" as="targetPoint" />
          </mxGeometry>
        </mxCell>
        <mxCell id="naz40MDq0d2nhBIz074v-73" value="" style="endArrow=classic;html=1;rounded=0;strokeWidth=2;" parent="naz40MDq0d2nhBIz074v-38" edge="1">
          <mxGeometry width="50" height="50" relative="1" as="geometry">
            <mxPoint x="340" y="470" as="sourcePoint" />
            <mxPoint x="149" y="472" as="targetPoint" />
          </mxGeometry>
        </mxCell>
        <mxCell id="naz40MDq0d2nhBIz074v-75" value="&lt;b&gt;&lt;font style=&quot;font-size: 40px;&quot;&gt;a)&lt;/font&gt;&lt;/b&gt;" style="text;html=1;align=center;verticalAlign=middle;whiteSpace=wrap;rounded=0;" parent="naz40MDq0d2nhBIz074v-38" vertex="1">
          <mxGeometry x="50" y="800" width="60" height="30" as="geometry" />
        </mxCell>
        <mxCell id="naz40MDq0d2nhBIz074v-87" value="" style="endArrow=none;html=1;rounded=0;exitX=1;exitY=1;exitDx=0;exitDy=0;entryX=0;entryY=1;entryDx=0;entryDy=0;dashed=1;dashPattern=12 12;strokeWidth=2;strokeColor=#CCCCCC;" parent="naz40MDq0d2nhBIz074v-38" source="naz40MDq0d2nhBIz074v-45" target="naz40MDq0d2nhBIz074v-2" edge="1">
          <mxGeometry width="50" height="50" relative="1" as="geometry">
            <mxPoint x="880" y="720" as="sourcePoint" />
            <mxPoint x="930" y="670" as="targetPoint" />
          </mxGeometry>
        </mxCell>
      </root>
    </mxGraphModel>
  </diagram>
</mxfile>
